<mxfile host="app.diagrams.net" modified="2024-06-06T09:29:06.566Z" agent="Mozilla/5.0 (Windows NT 10.0; Win64; x64) AppleWebKit/537.36 (KHTML, like Gecko) Chrome/125.0.0.0 Safari/537.36 Edg/125.0.0.0" etag="6Jhu_ponOt8I6KvpStIa" version="24.4.13" type="github">
  <diagram name="第 1 页" id="f8YywHsEjH6FdnHRCllN">
    <mxGraphModel dx="794" dy="547" grid="1" gridSize="10" guides="1" tooltips="1" connect="1" arrows="1" fold="1" page="1" pageScale="1" pageWidth="827" pageHeight="1169" math="0" shadow="0">
      <root>
        <mxCell id="0" />
        <mxCell id="1" parent="0" />
        <mxCell id="HIBAQgxya3U2K_z9rvxj-3" style="edgeStyle=orthogonalEdgeStyle;rounded=0;orthogonalLoop=1;jettySize=auto;html=1;exitX=1;exitY=0.5;exitDx=0;exitDy=0;entryX=0;entryY=0.5;entryDx=0;entryDy=0;" edge="1" parent="1" source="HIBAQgxya3U2K_z9rvxj-1" target="HIBAQgxya3U2K_z9rvxj-2">
          <mxGeometry relative="1" as="geometry" />
        </mxCell>
        <mxCell id="HIBAQgxya3U2K_z9rvxj-1" value="" style="shape=sumEllipse;perimeter=ellipsePerimeter;whiteSpace=wrap;html=1;backgroundOutline=1;" vertex="1" parent="1">
          <mxGeometry x="240" y="280" width="40" height="40" as="geometry" />
        </mxCell>
        <mxCell id="HIBAQgxya3U2K_z9rvxj-5" style="edgeStyle=orthogonalEdgeStyle;rounded=0;orthogonalLoop=1;jettySize=auto;html=1;exitX=1;exitY=0.5;exitDx=0;exitDy=0;entryX=0;entryY=0.5;entryDx=0;entryDy=0;" edge="1" parent="1" source="HIBAQgxya3U2K_z9rvxj-2" target="HIBAQgxya3U2K_z9rvxj-4">
          <mxGeometry relative="1" as="geometry" />
        </mxCell>
        <mxCell id="HIBAQgxya3U2K_z9rvxj-2" value="" style="rounded=0;whiteSpace=wrap;html=1;" vertex="1" parent="1">
          <mxGeometry x="380" y="270" width="120" height="60" as="geometry" />
        </mxCell>
        <mxCell id="HIBAQgxya3U2K_z9rvxj-7" style="edgeStyle=orthogonalEdgeStyle;rounded=0;orthogonalLoop=1;jettySize=auto;html=1;exitX=1;exitY=0.5;exitDx=0;exitDy=0;entryX=0;entryY=0.5;entryDx=0;entryDy=0;" edge="1" parent="1" source="HIBAQgxya3U2K_z9rvxj-4" target="HIBAQgxya3U2K_z9rvxj-6">
          <mxGeometry relative="1" as="geometry" />
        </mxCell>
        <mxCell id="HIBAQgxya3U2K_z9rvxj-4" value="" style="shape=sumEllipse;perimeter=ellipsePerimeter;whiteSpace=wrap;html=1;backgroundOutline=1;" vertex="1" parent="1">
          <mxGeometry x="600" y="280" width="40" height="40" as="geometry" />
        </mxCell>
        <mxCell id="HIBAQgxya3U2K_z9rvxj-9" style="edgeStyle=orthogonalEdgeStyle;rounded=0;orthogonalLoop=1;jettySize=auto;html=1;exitX=1;exitY=0.5;exitDx=0;exitDy=0;entryX=0;entryY=0.5;entryDx=0;entryDy=0;" edge="1" parent="1" source="HIBAQgxya3U2K_z9rvxj-6" target="HIBAQgxya3U2K_z9rvxj-8">
          <mxGeometry relative="1" as="geometry" />
        </mxCell>
        <mxCell id="HIBAQgxya3U2K_z9rvxj-6" value="" style="rounded=0;whiteSpace=wrap;html=1;" vertex="1" parent="1">
          <mxGeometry x="740" y="270" width="120" height="60" as="geometry" />
        </mxCell>
        <mxCell id="HIBAQgxya3U2K_z9rvxj-11" style="edgeStyle=orthogonalEdgeStyle;rounded=0;orthogonalLoop=1;jettySize=auto;html=1;exitX=1;exitY=0.5;exitDx=0;exitDy=0;entryX=0;entryY=0.5;entryDx=0;entryDy=0;" edge="1" parent="1" source="HIBAQgxya3U2K_z9rvxj-8" target="HIBAQgxya3U2K_z9rvxj-10">
          <mxGeometry relative="1" as="geometry" />
        </mxCell>
        <mxCell id="HIBAQgxya3U2K_z9rvxj-8" value="" style="shape=sumEllipse;perimeter=ellipsePerimeter;whiteSpace=wrap;html=1;backgroundOutline=1;" vertex="1" parent="1">
          <mxGeometry x="960" y="280" width="40" height="40" as="geometry" />
        </mxCell>
        <mxCell id="HIBAQgxya3U2K_z9rvxj-10" value="M" style="verticalLabelPosition=middle;shadow=0;dashed=0;align=center;html=1;verticalAlign=middle;strokeWidth=1;shape=ellipse;aspect=fixed;fontSize=35;" vertex="1" parent="1">
          <mxGeometry x="1100" y="250" width="100" height="100" as="geometry" />
        </mxCell>
      </root>
    </mxGraphModel>
  </diagram>
</mxfile>
